<svg width="188" height="104" viewBox="0 0 188 104" fill="none" xmlns="http://www.w3.org/2000/svg">
<path d="M35 13.5001C32.1097 14.9453 13.2292 19.7625 1.49648 22.6463C0.512216 22.8882 0.458112 24.2702 1.42547 24.5727C22.2861 31.0963 61.5089 43.2186 75.5 47C90.3 51 98.3333 51 100.5 50.5C121.084 46.5416 166.543 31.1577 187.353 23.7313C187.751 23.5894 188 23.2182 188 22.7958V22.5868C188 22.0018 187.502 21.5271 186.92 21.4652C180.092 20.7395 155.913 11.7026 144 7C139.5 5.83337 127 3.10011 113 1.50011C95.5 -0.499893 75 3.00011 69.5 3.50011C64 4.00011 39 11.5001 35 13.5001Z" fill="#1DC468"/>
<path d="M16.7619 97.0963L15.0902 48.6165C15.0399 47.1571 13.8422 46 12.382 46C11.0197 46 9.86923 47.0113 9.69453 48.3623L3.47365 96.4705C2.9574 100.463 6.06666 104 10.0922 104C13.8682 104 16.8921 100.87 16.7619 97.0963Z" fill="#1DC468"/>
<path d="M98.5 66C75.7562 67.8953 54.426 60.3527 41.7 53.8134C38.1163 51.9718 33.5 54.4928 33.5 58.522V75.2781C33.5 85.3939 40.3983 94.206 50.2183 96.6346L77.6348 103.415C79.2058 103.804 80.8155 104.003 82.4337 103.99C91.4222 103.918 108.358 103.455 120 102C128.727 100.909 140.585 98.0516 149.836 95.5513C156.2 93.831 160.5 87.9978 160.5 81.4047V60.0428C160.5 56.0095 155.762 53.3189 152.036 54.8627C141.936 59.0469 124.532 63.8307 98.5 66Z" fill="#1DC468"/>
</svg>
